<svg xmlns="http://www.w3.org/2000/svg" width="512" height="512" viewBox="0 0 512 512">
  <!--
    nettest application icon.
    Glyph: Lucide "cable" (ISC license, https://lucide.dev).
    Colours: slaytons.net theme blue #007aff, dark neutral #1c1e22 for depth.
  -->
  <defs>
    <linearGradient id="bg" x1="0" y1="0" x2="0" y2="1">
      <stop offset="0" stop-color="#2b93ff"/>
      <stop offset="1" stop-color="#007aff"/>
    </linearGradient>
    <linearGradient id="shade" x1="0" y1="0" x2="0" y2="1">
      <stop offset="0" stop-color="#ffffff" stop-opacity="0.10"/>
      <stop offset="0.5" stop-color="#ffffff" stop-opacity="0"/>
      <stop offset="1" stop-color="#1c1e22" stop-opacity="0.18"/>
    </linearGradient>
  </defs>
  <rect x="16" y="16" width="480" height="480" rx="108" fill="url(#bg)"/>
  <rect x="16" y="16" width="480" height="480" rx="108" fill="url(#shade)"/>
  <!-- Cable glyph scaled 24 -> 320 and centred; drop shadow underneath for contrast at small sizes -->
  <g transform="translate(96 108) scale(13.3333)" fill="none" stroke="#004ea8" stroke-opacity="0.45" stroke-width="2.6" stroke-linecap="round" stroke-linejoin="round">
    <path d="M17 19a1 1 0 0 1-1-1v-2a2 2 0 0 1 2-2h2a2 2 0 0 1 2 2v2a1 1 0 0 1-1 1z"/><path d="M17 21v-2"/><path d="M19 14V6.5a1 1 0 0 0-7 0v11a1 1 0 0 1-7 0V10"/><path d="M21 21v-2"/><path d="M3 5V3"/><path d="M4 10a2 2 0 0 1-2-2V6a1 1 0 0 1 1-1h4a1 1 0 0 1 1 1v2a2 2 0 0 1-2 2z"/><path d="M7 5V3"/>
  </g>
  <g transform="translate(96 96) scale(13.3333)" fill="none" stroke="#ffffff" stroke-width="2.2" stroke-linecap="round" stroke-linejoin="round">
    <path d="M17 19a1 1 0 0 1-1-1v-2a2 2 0 0 1 2-2h2a2 2 0 0 1 2 2v2a1 1 0 0 1-1 1z"/><path d="M17 21v-2"/><path d="M19 14V6.5a1 1 0 0 0-7 0v11a1 1 0 0 1-7 0V10"/><path d="M21 21v-2"/><path d="M3 5V3"/><path d="M4 10a2 2 0 0 1-2-2V6a1 1 0 0 1 1-1h4a1 1 0 0 1 1 1v2a2 2 0 0 1-2 2z"/><path d="M7 5V3"/>
  </g>
</svg>
